<svg width="24" height="24" viewBox="0 0 24 24" fill="none" xmlns="http://www.w3.org/2000/svg">
<path d="M23.9719 1.79165C23.9199 0.838307 23.1617 0.0801974 22.2084 0.0281661C20.2847 -0.0769276 16.5204 0.0253068 12.921 1.88704C11.0861 2.83617 9.14546 4.44534 7.59676 6.30196C7.57768 6.32484 7.55912 6.34785 7.54018 6.37078L4.0255 6.64228C3.44696 6.68699 2.93167 6.99023 2.6117 7.47417L0.213855 11.101C-0.0288164 11.468 -0.0673945 11.9273 0.11059 12.3297C0.288621 12.732 0.654434 13.0124 1.0892 13.0798L4.05034 13.5384C4.03989 13.596 4.02939 13.6535 4.01978 13.7111C3.9212 14.3008 4.11657 14.907 4.54248 15.3329L8.6671 19.4576C9.02021 19.8107 9.49735 20.0054 9.98626 20.0054C10.0869 20.0054 10.1882 19.9971 10.289 19.9802C10.3465 19.9706 10.4041 19.9601 10.4616 19.9497L10.9202 22.9109C10.9876 23.3456 11.268 23.7115 11.6703 23.8895C11.8377 23.9635 12.0148 24.0001 12.1912 24.0001C12.4388 24 12.6847 23.9279 12.899 23.7862L16.5258 21.3884C17.0098 21.0683 17.313 20.553 17.3576 19.9746L17.6291 16.4599C17.6521 16.441 17.6751 16.4224 17.698 16.4033C19.5547 14.8546 21.1639 12.914 22.113 11.079C23.9748 7.47946 24.0768 3.71517 23.9719 1.79165V1.79165ZM15.7503 20.2153L12.281 22.509L11.834 19.6231C13.3003 19.192 14.7507 18.5016 16.1326 17.5766L15.9557 19.8662C15.9447 20.009 15.8698 20.1363 15.7503 20.2153V20.2153ZM9.66146 18.4632L5.53679 14.3385C5.43156 14.2333 5.3829 14.0854 5.40676 13.9429C5.52939 13.2097 5.71993 12.5116 5.95581 11.8541L12.1446 18.0429C11.3549 18.3258 10.6475 18.4945 10.0571 18.5932C9.9144 18.617 9.7667 18.5684 9.66146 18.4632V18.4632ZM4.13382 8.04435L6.42339 7.86749C5.49836 9.24932 4.80789 10.6998 4.37678 12.166L1.49096 11.7191L3.78475 8.24976C3.86378 8.13023 3.99104 8.05537 4.13382 8.04435V8.04435ZM16.7973 15.3234C15.6614 16.2709 14.5588 16.9562 13.5424 17.4521L6.5477 10.4573C7.19729 9.13059 7.99009 8.02579 8.67662 7.20276C10.1098 5.48456 11.8923 4.00232 13.5671 3.13607C16.8706 1.42734 20.3511 1.33532 22.1318 1.43226C22.3675 1.4451 22.5549 1.63256 22.5678 1.86829C22.6649 3.64898 22.5727 7.12945 20.8639 10.433C19.9977 12.1077 18.5155 13.8902 16.7973 15.3234Z" fill="#FFA155"/>
<path d="M16.4403 11.0736C17.3404 11.0735 18.2409 10.7309 18.9262 10.0456C19.5902 9.38161 19.9558 8.49877 19.9558 7.55977C19.9558 6.62077 19.5901 5.73792 18.9262 5.07394C17.5554 3.70317 15.3251 3.70327 13.9545 5.07394C13.2905 5.73792 12.9248 6.62077 12.9248 7.55977C12.9248 8.49877 13.2905 9.38161 13.9545 10.0456C14.6399 10.731 15.5399 11.0737 16.4403 11.0736ZM14.9488 6.06825C15.36 5.65702 15.9001 5.45142 16.4402 5.45142C16.9804 5.45142 17.5206 5.65702 17.9318 6.06825C18.3301 6.46664 18.5495 6.99633 18.5495 7.55972C18.5495 8.12311 18.3301 8.65284 17.9318 9.05124C17.1094 9.87366 15.7711 9.87361 14.9487 9.05124C14.5503 8.65284 14.3309 8.12316 14.3309 7.55977C14.3309 6.99638 14.5504 6.46664 14.9488 6.06825Z" fill="#4F56FF"/>
<path d="M0.717506 19.7781C0.897459 19.7781 1.07741 19.7094 1.21466 19.5721L3.51027 17.2765C3.78486 17.0019 3.78486 16.5567 3.51027 16.2821C3.23572 16.0075 2.79051 16.0075 2.51591 16.2821L0.22035 18.5777C-0.0542441 18.8523 -0.0542441 19.2975 0.22035 19.5721C0.3576 19.7094 0.537553 19.7781 0.717506 19.7781V19.7781Z" fill="#FFA155"/>
<path d="M5.61402 18.3859C5.33947 18.1113 4.89425 18.1113 4.61966 18.3859L0.206189 22.7994C-0.0684043 23.074 -0.0684043 23.5192 0.206189 23.7938C0.343486 23.9311 0.523393 23.9997 0.703346 23.9997C0.883299 23.9997 1.06325 23.9311 1.2005 23.7937L5.61397 19.3802C5.88861 19.1056 5.88861 18.6605 5.61402 18.3859V18.3859Z" fill="#FFA155"/>
<path d="M6.72348 20.4899L4.42787 22.7855C4.15328 23.0601 4.15328 23.5053 4.42787 23.7799C4.56517 23.9171 4.74512 23.9858 4.92502 23.9858C5.10493 23.9858 5.28493 23.9172 5.42218 23.7799L7.71779 21.4842C7.99238 21.2096 7.99238 20.7645 7.71779 20.4899C7.44324 20.2153 6.99802 20.2153 6.72348 20.4899Z" fill="#FFA155"/>
</svg>
