<svg width="24" height="24" viewBox="0 0 24 24" fill="none" xmlns="http://www.w3.org/2000/svg">
<path d="M23.2615 14.6041C23.2614 14.6041 23.2614 14.6041 23.2615 14.6041L22.7121 14.302C20.8955 13.3028 20.8908 10.6999 22.7121 9.69806L23.2615 9.39595C23.9664 9.0082 24.2087 8.14645 23.8018 7.47502L22.0141 4.52508C21.6071 3.85364 20.7026 3.62288 19.9977 4.01039L19.4508 4.31123C17.6465 5.30348 15.2635 4.02783 15.2635 2.01309V1.40625C15.2635 0.630844 14.6013 0 13.7874 0H10.212C9.39806 0 8.73589 0.630844 8.73589 1.40625V2.013C8.73589 4.02825 6.35233 5.3032 4.54851 4.31114L4.00157 4.0103C3.29508 3.62161 2.39319 3.85186 1.9852 4.52498L0.197527 7.47492C-0.209427 8.14636 0.0328958 9.00811 0.737821 9.39586L1.28712 9.69797C3.10368 10.6972 3.1084 13.3001 1.28712 14.3019L0.737722 14.604C0.0328465 14.9918 -0.209476 15.8535 0.197478 16.5249L1.98516 19.4749C2.39211 20.1464 3.2966 20.3774 4.00148 19.9896L4.54841 19.6887C6.35356 18.696 8.7358 19.9747 8.7358 21.9869V22.5938C8.7358 23.3692 9.39796 24 10.2119 24H13.7873C14.6012 24 15.2634 23.3692 15.2634 22.5938V21.987C15.2634 19.9719 17.6468 18.6967 19.4507 19.6889L19.9977 19.9897C20.7025 20.3774 21.6071 20.1465 22.014 19.475L23.8017 16.5251C24.2097 15.852 23.968 14.9927 23.2615 14.6041ZM20.7357 18.7718L20.1888 18.471C17.4055 16.9401 13.7873 18.8845 13.7873 21.987V22.5938H10.2119V21.987C10.2119 18.8807 6.58997 16.942 3.81037 18.471L3.26344 18.7718L1.47571 15.8219L2.02506 15.5198C3.32524 14.8046 4.13068 13.4627 4.12724 12.0169V12V11.9823C4.13073 10.5374 3.32524 9.19542 2.02506 8.48025L1.47576 8.17814L3.26344 5.2282L3.81037 5.52905C6.59352 7.05998 10.2119 5.11552 10.2119 2.01305V1.40625H13.7873V2.013C13.7873 5.08673 17.3795 7.07414 20.1888 5.529L20.7357 5.22816L22.5234 8.17809L21.9741 8.4802C19.1692 10.023 19.1732 13.9792 21.9741 15.5198L22.5234 15.8219L20.7357 18.7718Z" fill="#FFA155"/>
<path d="M12 6C8.6916 6 6 8.69157 6 12C6 15.3084 8.6916 18 12 18C15.3084 18 18 15.3084 18 12C18 8.69157 15.3084 6 12 6ZM12 16.6006C9.46324 16.6006 7.39942 14.5368 7.39942 12C7.39942 9.46321 9.46324 7.39943 12 7.39943C14.5368 7.39943 16.6006 9.46321 16.6006 12C16.6006 14.5368 14.5368 16.6006 12 16.6006V16.6006Z" fill="#4F56FF"/>
<path d="M13.4785 10.3867L11.3113 12.1305L10.6068 11.3167C10.3648 11.0372 9.95977 11.0233 9.70205 11.2856C9.44428 11.5478 9.43144 11.9869 9.67337 12.2663L10.7682 13.531C10.9908 13.7881 11.3556 13.8231 11.6163 13.6133L14.2414 11.501C14.5252 11.2726 14.5845 10.838 14.3738 10.5303C14.1632 10.2227 13.7623 10.1584 13.4785 10.3867V10.3867Z" fill="#4F56FF"/>
</svg>
