<svg width="24" height="25" viewBox="0 0 24 25" fill="none" xmlns="http://www.w3.org/2000/svg">
<path d="M2.10938 0.0449219H21.8906C23.0537 0.0449219 24 0.994898 24 2.16257V21.9273C24 23.0949 23.0537 24.0449 21.8906 24.0449H2.10938C0.946266 24.0449 0 23.0949 0 21.9273V2.16257C0 0.994898 0.946266 0.0449219 2.10938 0.0449219ZM21.8906 1.45669H2.10938C1.72167 1.45669 1.40625 1.77335 1.40625 2.16257V5.69198H22.5938V2.16257C22.5938 1.77335 22.2783 1.45669 21.8906 1.45669ZM2.10938 22.6332H21.8906C22.2783 22.6332 22.5938 22.3165 22.5938 21.9273V7.10375H1.40625V21.9273C1.40625 22.3165 1.72167 22.6332 2.10938 22.6332Z" fill="#FFA155"/>
<path d="M9.6137 9.27844C9.97061 9.12489 10.384 9.29086 10.537 9.64917L14.7557 19.5315C14.9087 19.8898 14.7433 20.3048 14.3864 20.4584C14.0294 20.612 13.6161 20.4459 13.4632 20.0877L9.24442 10.2053C9.09142 9.84696 9.2568 9.43199 9.6137 9.27844V9.27844Z" fill="#4F56FF"/>
<path d="M15.6696 11.604C15.9123 11.2996 16.3548 11.2503 16.6579 11.4938L20.1735 14.3174C20.525 14.5996 20.5253 15.1373 20.1735 15.4198L16.6579 18.2433C16.3547 18.4869 15.9121 18.4375 15.6696 18.1331C15.4271 17.8287 15.4762 17.3844 15.7795 17.1409L18.6087 14.8686L15.7795 12.5962C15.4762 12.3527 15.4271 11.9085 15.6696 11.604V11.604Z" fill="#4F56FF"/>
<path d="M3.82638 14.3174L7.342 11.4938C7.64524 11.2503 8.08774 11.2996 8.33027 11.6041C8.57285 11.9085 8.52372 12.3527 8.22044 12.5962L5.39116 14.8686L8.22044 17.1409C8.52372 17.3844 8.57285 17.8286 8.33027 18.133C8.08736 18.4378 7.64481 18.4866 7.342 18.2433L3.82638 15.4197C3.47486 15.1375 3.47463 14.5998 3.82638 14.3174Z" fill="#4F56FF"/>
<path d="M20.4375 4.28017C20.0492 4.28017 19.7344 3.96414 19.7344 3.57429C19.7344 3.18444 20.0492 2.86841 20.4375 2.86841C20.8258 2.86841 21.1406 3.18444 21.1406 3.57429C21.1406 3.96414 20.8258 4.28017 20.4375 4.28017Z" fill="#FFA155"/>
<path d="M17.625 4.28017C17.2367 4.28017 16.9219 3.96414 16.9219 3.57429C16.9219 3.18444 17.2367 2.86841 17.625 2.86841C18.0133 2.86841 18.3281 3.18444 18.3281 3.57429C18.3281 3.96414 18.0133 4.28017 17.625 4.28017Z" fill="#FFA155"/>
<path d="M14.8125 4.28017C14.4242 4.28017 14.1094 3.96414 14.1094 3.57429C14.1094 3.18444 14.4242 2.86841 14.8125 2.86841C15.2008 2.86841 15.5156 3.18444 15.5156 3.57429C15.5156 3.96414 15.2008 4.28017 14.8125 4.28017Z" fill="#FFA155"/>
<path d="M7.78125 4.28017H3.5625C3.17419 4.28017 2.85938 3.96413 2.85938 3.57429C2.85938 3.18446 3.17419 2.86841 3.5625 2.86841H7.78125C8.16956 2.86841 8.48438 3.18446 8.48438 3.57429C8.48438 3.96413 8.16956 4.28017 7.78125 4.28017Z" fill="#FFA155"/>
</svg>
